<mxfile host="app.diagrams.net" modified="2023-08-29T08:17:31.315Z" agent="Mozilla/5.0 (Macintosh; Intel Mac OS X 10_15_7) AppleWebKit/537.36 (KHTML, like Gecko) Chrome/114.0.0.0 Safari/537.36" version="21.6.9" etag="SvC50L6nuYCsB9UgqiXd" type="github">
  <diagram name="Page-1" id="S3YakbGocCwjj-l4n_jp">
    <mxGraphModel>
      <root>
        <mxCell id="0" />
        <mxCell id="1" parent="0" />
      </root>
    </mxGraphModel>
  </diagram>
</mxfile>
